
        <svg xmlns="http://www.w3.org/2000/svg" xmlns:xlink="http://www.w3.org/1999/xlink" version="1.1" width="3171.4285714285716" 
        height="1362.8571428571427" viewBox="0 0 3171.4285714285716 1362.8571428571427">
			
			<g transform="scale(8.571428571428571) translate(10, 10)">
				<defs id="SvgjsDefs1338"></defs><g id="SvgjsG1339" featureKey="symbolContainer" transform="matrix(1,0,0,1,20,20)" fill="#111111"><rect xmlns="http://www.w3.org/2000/svg" width="110" height="119" rx="10" ry="10"></rect></g><g id="SvgjsG1340" featureKey="monogramFeature-0" transform="matrix(1.8813663725117884,0,0,1.8813663725117884,31.73233589225385,5.937862686895251)" fill="#6fe7dd"><path d="M20.801 53.2617 c8.6915 0 13.037 -5.1173 13.037 -15.352 c0 -8.7108 -4.3456 -13.066 -13.037 -13.066 l-8.6426 0 l0 28.418 l8.6426 0 z M4.3945 60 l0 -41.895 l16.406 0 c13.867 0 20.801 6.6015 20.801 19.805 c0 14.727 -6.9337 22.09 -20.801 22.09 l-16.406 0 z"></path></g><g id="SvgjsG1341" featureKey="nameFeature-0" transform="matrix(0.6495193917257239,0,0,0.6495193917257239,148.20732571074385,55.01117119636802)" fill="#111111"><path d="M15 11.440000000000001 c4.0532 0 7.24 1.2533 9.56 3.76 s3.48 5.96 3.48 10.36 c0 4.56 -1.1667 8.1068 -3.5 10.64 s-5.46 3.8 -9.38 3.8 l-12.4 0 l0 -28.56 l12.24 0 z M14.6 34.72 c2.2667 0 4.0268 -0.74668 5.28 -2.24 s1.88 -3.6133 1.88 -6.36 c0 -3.1467 -0.67332 -5.5 -2.02 -7.06 s-3.42 -2.34 -6.22 -2.34 l-4.48 0 l0 18 l5.56 0 z M46.64 11.440000000000001 l10.68 28.56 l-6.52 0 l-2.16 -6.36 l-10.68 0 l-2.24 6.36 l-6.36 0 l10.84 -28.56 l6.44 0 z M43.32 18.48 l-3.72 10.48 l7.4 0 l-3.6 -10.48 l-0.08 0 z M78 11.440000000000001 l0 5.28 l-8.56 0 l0 23.28 l-6.28 0 l0 -23.28 l-8.56 0 l0 -5.28 l23.4 0 z M92.56000000000002 11.440000000000001 l10.68 28.56 l-6.52 0 l-2.16 -6.36 l-10.68 0 l-2.24 6.36 l-6.36 0 l10.84 -28.56 l6.44 0 z M89.24000000000001 18.48 l-3.72 10.48 l7.4 0 l-3.6 -10.48 l-0.08 0 z M129.76000000000002 11.440000000000001 c3.04 0 5.44 0.82668 7.2 2.48 s2.64 3.88 2.64 6.68 c0 2.8267 -0.88 5.06 -2.64 6.7 s-4.1468 2.46 -7.16 2.46 l-6.68 0 l0 10.24 l-6.28 0 l0 -28.56 l12.92 0 z M128.12000000000003 24.880000000000003 c1.8133 0 3.1667 -0.33332 4.06 -1 s1.34 -1.76 1.34 -3.28 c0 -1.4667 -0.43332 -2.5467 -1.3 -3.24 s-2.22 -1.04 -4.06 -1.04 l-5.04 0 l0 8.56 l5 0 z M156.32000000000002 10.760000000000002 c4.2132 0 7.6068 1.4 10.18 4.2 s3.86 6.4268 3.86 10.88 c0 4.3468 -1.2933 7.9068 -3.88 10.68 s-5.9732 4.16 -10.16 4.16 c-4.2132 0 -7.6068 -1.3867 -10.18 -4.16 s-3.86 -6.3332 -3.86 -10.68 c0 -4.4268 1.2933 -8.0468 3.88 -10.86 s5.9732 -4.22 10.16 -4.22 z M148.56000000000003 25.84 c0 2.88 0.67996 5.1932 2.04 6.94 s3.2667 2.62 5.72 2.62 c2.4 0 4.2932 -0.86 5.68 -2.58 s2.08 -4.0468 2.08 -6.98 c0 -3.0667 -0.68668 -5.4668 -2.06 -7.2 s-3.2866 -2.6 -5.74 -2.6 c-2.4 0 -4.2868 0.86668 -5.66 2.6 s-2.06 4.1332 -2.06 7.2 z M190.04000000000002 11.440000000000001 c2.4 0 4.3936 0.74 5.98 2.22 s2.38 3.3667 2.38 5.66 c0 3.5733 -1.5067 5.96 -4.52 7.16 l0 0.08 c1.0133 0.29332 1.8066 0.78 2.38 1.46 s1.0066 1.4733 1.3 2.38 s0.48 2.36 0.56 4.36 c0.10668 2.6133 0.48 4.36 1.12 5.24 l-6.28 0 c-0.34668 -0.88 -0.61336 -2.5333 -0.80004 -4.96 c-0.21332 -2.56 -0.68 -4.2332 -1.4 -5.02 s-1.8933 -1.18 -3.52 -1.18 l-6.32 0 l0 11.16 l-6.28 0 l0 -28.56 l15.4 0 z M187.84000000000003 24.36 c1.3333 0 2.38 -0.3 3.14 -0.9 s1.14 -1.66 1.14 -3.18 c0 -1.44 -0.37332 -2.46 -1.12 -3.06 s-1.8134 -0.9 -3.2 -0.9 l-6.88 0 l0 8.04 l6.92 0 z M223.96000000000004 11.440000000000001 l0 5.28 l-8.56 0 l0 23.28 l-6.28 0 l0 -23.28 l-8.56 0 l0 -5.28 l23.4 0 z M238.52 11.440000000000001 l10.68 28.56 l-6.52 0 l-2.16 -6.36 l-10.68 0 l-2.24 6.36 l-6.36 0 l10.84 -28.56 l6.44 0 z M235.20000000000002 18.48 l-3.72 10.48 l7.4 0 l-3.6 -10.48 l-0.08 0 z M257.96000000000004 11.440000000000001 l0 23.28 l13.92 0 l0 5.28 l-20.2 0 l0 -28.56 l6.28 0 z M291.59999999999997 11.440000000000001 l5.6 9.12 l5.8 -9.12 l6.88 0 l-9.16 13.64 l9.96 14.92 l-7.48 0 l-6.24 -9.88 l-6.36 9.88 l-7.08 0 l10 -14.96 l-9.2 -13.6 l7.28 0 z"></path></g><g id="SvgjsG1342" featureKey="sloganFeature-0" transform="matrix(0.46500815578936877,0,0,0.46500815578936877,149.3582886917947,88.49825606863723)" fill="#111111"><path d="M4.5 5.720000000000001 l5.96 9.58 l0.04 0 l0 -9.58 l2.94 0 l0 14.28 l-3.14 0 l-5.94 -9.56 l-0.04 0 l0 9.56 l-2.94 0 l0 -14.28 l3.12 0 z M22.6 5.380000000000001 c2.1066 0 3.8034 0.7 5.09 2.1 s1.93 3.2134 1.93 5.44 c0 2.1734 -0.64666 3.9534 -1.94 5.34 s-2.9866 2.08 -5.08 2.08 c-2.1066 0 -3.8034 -0.69334 -5.09 -2.08 s-1.93 -3.1666 -1.93 -5.34 c0 -2.2134 0.64666 -4.0234 1.94 -5.43 s2.9866 -2.11 5.08 -2.11 z M18.72 12.92 c0 1.44 0.33998 2.5966 1.02 3.47 s1.6333 1.31 2.86 1.31 c1.2 0 2.1466 -0.43 2.84 -1.29 s1.04 -2.0234 1.04 -3.49 c0 -1.5333 -0.34334 -2.7334 -1.03 -3.6 s-1.6433 -1.3 -2.87 -1.3 c-1.2 0 -2.1434 0.43334 -2.83 1.3 s-1.03 2.0666 -1.03 3.6 z M42.34 5.720000000000001 l0 2.64 l-4.28 0 l0 11.64 l-3.14 0 l0 -11.64 l-4.28 0 l0 -2.64 l11.7 0 z M47.120000000000005 5.720000000000001 l0 5.48 l5.78 0 l0 -5.48 l3.14 0 l0 14.28 l-3.14 0 l0 -6.16 l-5.78 0 l0 6.16 l-3.14 0 l0 -14.28 l3.14 0 z M61.94 5.720000000000001 l0 14.28 l-3.14 0 l0 -14.28 l3.14 0 z M67.82 5.720000000000001 l5.96 9.58 l0.04 0 l0 -9.58 l2.94 0 l0 14.28 l-3.14 0 l-5.94 -9.56 l-0.04 0 l0 9.56 l-2.94 0 l0 -14.28 l3.12 0 z M85.92 5.380000000000001 c1.6267 0 3.0066 0.47336 4.14 1.42 s1.76 2.1534 1.88 3.62 l-3 0 c-0.18666 -0.8 -0.54666 -1.4 -1.08 -1.8 s-1.18 -0.6 -1.94 -0.6 c-1.2267 0 -2.18 0.44334 -2.86 1.33 s-1.02 2.0766 -1.02 3.57 c0 1.4667 0.34666 2.63 1.04 3.49 s1.64 1.29 2.84 1.29 c2.0534 0 3.1866 -1.0267 3.4 -3.08 l-3.16 0 l0 -2.34 l6 0 l0 7.72 l-2 0 l-0.32 -1.62 c-1 1.3067 -2.3066 1.96 -3.92 1.96 c-2.1066 0 -3.8034 -0.69334 -5.09 -2.08 s-1.93 -3.1666 -1.93 -5.34 c0 -2.2134 0.64 -4.0234 1.92 -5.43 s2.98 -2.11 5.1 -2.11 z M110.84 5.720000000000001 l0 2.64 l-4.28 0 l0 11.64 l-3.14 0 l0 -11.64 l-4.28 0 l0 -2.64 l11.7 0 z M118.88 5.380000000000001 c2.1066 0 3.8034 0.7 5.09 2.1 s1.93 3.2134 1.93 5.44 c0 2.1734 -0.64666 3.9534 -1.94 5.34 s-2.9866 2.08 -5.08 2.08 c-2.1066 0 -3.8034 -0.69334 -5.09 -2.08 s-1.93 -3.1666 -1.93 -5.34 c0 -2.2134 0.64666 -4.0234 1.94 -5.43 s2.9866 -2.11 5.08 -2.11 z M115 12.92 c0 1.44 0.33998 2.5966 1.02 3.47 s1.6333 1.31 2.86 1.31 c1.2 0 2.1466 -0.43 2.84 -1.29 s1.04 -2.0234 1.04 -3.49 c0 -1.5333 -0.34334 -2.7334 -1.03 -3.6 s-1.6433 -1.3 -2.87 -1.3 c-1.2 0 -2.1434 0.43334 -2.83 1.3 s-1.03 2.0666 -1.03 3.6 z M135.42 5.720000000000001 l2.26 9.72 l0.04 0 l2.48 -9.72 l2.94 0 l2.44 9.84 l0.04 0 l2.34 -9.84 l3.08 0 l-3.84 14.28 l-3.12 0 l-2.42 -9.72 l-0.04 0 l-2.38 9.72 l-3.18 0 l-3.78 -14.28 l3.14 0 z M158.88 5.380000000000001 c2.1066 0 3.8034 0.7 5.09 2.1 s1.93 3.2134 1.93 5.44 c0 2.1734 -0.64666 3.9534 -1.94 5.34 s-2.9866 2.08 -5.08 2.08 c-2.1066 0 -3.8034 -0.69334 -5.09 -2.08 s-1.93 -3.1666 -1.93 -5.34 c0 -2.2134 0.64666 -4.0234 1.94 -5.43 s2.9866 -2.11 5.08 -2.11 z M155 12.92 c0 1.44 0.33998 2.5966 1.02 3.47 s1.6333 1.31 2.86 1.31 c1.2 0 2.1466 -0.43 2.84 -1.29 s1.04 -2.0234 1.04 -3.49 c0 -1.5333 -0.34334 -2.7334 -1.03 -3.6 s-1.6433 -1.3 -2.87 -1.3 c-1.2 0 -2.1434 0.43334 -2.83 1.3 s-1.03 2.0666 -1.03 3.6 z M175.74 5.720000000000001 c1.2 0 2.1968 0.37 2.99 1.11 s1.19 1.6833 1.19 2.83 c0 1.7867 -0.75334 2.98 -2.26 3.58 l0 0.04 c0.50666 0.14666 0.90332 0.39 1.19 0.73 s0.50332 0.73666 0.64998 1.19 s0.24 1.18 0.28 2.18 c0.05334 1.3067 0.24 2.18 0.56 2.62 l-3.14 0 c-0.17334 -0.44 -0.30668 -1.2667 -0.40002 -2.48 c-0.10666 -1.28 -0.34 -2.1166 -0.7 -2.51 s-0.94666 -0.59 -1.76 -0.59 l-3.16 0 l0 5.58 l-3.14 0 l0 -14.28 l7.7 0 z M174.64 12.18 c0.66666 0 1.19 -0.15 1.57 -0.45 s0.57 -0.83 0.57 -1.59 c0 -0.72 -0.18666 -1.23 -0.56 -1.53 s-0.90668 -0.45 -1.6 -0.45 l-3.44 0 l0 4.02 l3.46 0 z M190.18 5.720000000000001 c1.2 0 2.1968 0.37 2.99 1.11 s1.19 1.6833 1.19 2.83 c0 1.7867 -0.75334 2.98 -2.26 3.58 l0 0.04 c0.50666 0.14666 0.90332 0.39 1.19 0.73 s0.50332 0.73666 0.64998 1.19 s0.24 1.18 0.28 2.18 c0.05334 1.3067 0.24 2.18 0.56 2.62 l-3.14 0 c-0.17334 -0.44 -0.30668 -1.2667 -0.40002 -2.48 c-0.10666 -1.28 -0.34 -2.1166 -0.7 -2.51 s-0.94666 -0.59 -1.76 -0.59 l-3.16 0 l0 5.58 l-3.14 0 l0 -14.28 l7.7 0 z M189.07999999999998 12.18 c0.66666 0 1.19 -0.15 1.57 -0.45 s0.57 -0.83 0.57 -1.59 c0 -0.72 -0.18666 -1.23 -0.56 -1.53 s-0.90668 -0.45 -1.6 -0.45 l-3.44 0 l0 4.02 l3.46 0 z M198.16 5.720000000000001 l3.34 5.64 l3.32 -5.64 l3.5 0 l-5.3 8.8 l0 5.48 l-3.14 0 l0 -5.56 l-5.26 -8.72 l3.54 0 z M222.2 5.720000000000001 l5.34 14.28 l-3.26 0 l-1.08 -3.18 l-5.34 0 l-1.12 3.18 l-3.18 0 l5.42 -14.28 l3.22 0 z M220.54 9.24 l-1.86 5.24 l3.7 0 l-1.8 -5.24 l-0.04 0 z M235.51999999999998 5.720000000000001 c3.0266 0 4.54 1.1733 4.54 3.52 c0 1.3467 -0.64666 2.3466 -1.94 3 c0.88 0.25334 1.5367 0.69668 1.97 1.33 s0.65 1.3967 0.65 2.29 c0 1.28 -0.46334 2.29 -1.39 3.03 s-2.1434 1.11 -3.65 1.11 l-6.92 0 l0 -14.28 l6.74 0 z M235.11999999999998 11.5 c1.2667 0 1.9 -0.56666 1.9 -1.7 c0 -1.0933 -0.70666 -1.64 -2.12 -1.64 l-2.98 0 l0 3.34 l3.2 0 z M235.29999999999998 17.56 c1.5333 0 2.3 -0.62666 2.3 -1.88 c0 -1.36 -0.74666 -2.04 -2.24 -2.04 l-3.44 0 l0 3.92 l3.38 0 z M249.26 5.380000000000001 c2.1066 0 3.8034 0.7 5.09 2.1 s1.93 3.2134 1.93 5.44 c0 2.1734 -0.64666 3.9534 -1.94 5.34 s-2.9866 2.08 -5.08 2.08 c-2.1066 0 -3.8034 -0.69334 -5.09 -2.08 s-1.93 -3.1666 -1.93 -5.34 c0 -2.2134 0.64666 -4.0234 1.94 -5.43 s2.9866 -2.11 5.08 -2.11 z M245.38 12.92 c0 1.44 0.33998 2.5966 1.02 3.47 s1.6333 1.31 2.86 1.31 c1.2 0 2.1466 -0.43 2.84 -1.29 s1.04 -2.0234 1.04 -3.49 c0 -1.5333 -0.34334 -2.7334 -1.03 -3.6 s-1.6433 -1.3 -2.87 -1.3 c-1.2 0 -2.1434 0.43334 -2.83 1.3 s-1.03 2.0666 -1.03 3.6 z M261.49999999999994 5.720000000000001 l-0.000019531 8.94 c0 1.0533 0.23666 1.8233 0.71 2.31 s1.2167 0.73 2.23 0.73 c1.0933 0 1.86 -0.24334 2.3 -0.73 s0.66 -1.2567 0.66 -2.31 l0 -8.94 l3.14 0 l0 8.94 c0 1.7867 -0.51 3.18 -1.53 4.18 s-2.5434 1.5 -4.57 1.5 c-2.0666 0 -3.5966 -0.5 -4.59 -1.5 s-1.49 -2.3934 -1.49 -4.18 l0 -8.94 l3.14 0 z M283.81999999999994 5.720000000000001 l0 2.64 l-4.28 0 l0 11.64 l-3.14 0 l0 -11.64 l-4.28 0 l0 -2.64 l11.7 0 z M297.14 5.720000000000001 c2.0266 0 3.62 0.62666 4.78 1.88 s1.74 2.98 1.74 5.18 c0 2.28 -0.58334 4.0534 -1.75 5.32 s-2.73 1.9 -4.69 1.9 l-6.2 0 l0 -14.28 l6.12 0 z M296.94 17.36 c1.1333 0 2.0134 -0.37334 2.64 -1.12 s0.94 -1.8067 0.94 -3.18 c0 -1.5733 -0.33666 -2.75 -1.01 -3.53 s-1.71 -1.17 -3.11 -1.17 l-2.24 0 l0 9 l2.78 0 z M312.96 5.720000000000001 l5.34 14.28 l-3.26 0 l-1.08 -3.18 l-5.34 0 l-1.12 3.18 l-3.18 0 l5.42 -14.28 l3.22 0 z M311.29999999999995 9.24 l-1.86 5.24 l3.7 0 l-1.8 -5.24 l-0.04 0 z M328.63999999999993 5.720000000000001 l0 2.64 l-4.28 0 l0 11.64 l-3.14 0 l0 -11.64 l-4.28 0 l0 -2.64 l11.7 0 z M335.91999999999996 5.720000000000001 l5.34 14.28 l-3.26 0 l-1.08 -3.18 l-5.34 0 l-1.12 3.18 l-3.18 0 l5.42 -14.28 l3.22 0 z M334.25999999999993 9.24 l-1.86 5.24 l3.7 0 l-1.8 -5.24 l-0.04 0 z M345.4599999999999 16.92 l0 3.08 l-3.14 0 l0 -3.08 l3.14 0 z"></path></g>
			</g>
		</svg>
	